<svg xmlns="http://www.w3.org/2000/svg" viewBox="0 0 512 512" width="512" height="512">
  <defs>
    <linearGradient id="glowGrad" x1="0%" y1="0%" x2="100%" y2="100%">
      <stop offset="0%" stop-color="#6366f1" />
      <stop offset="100%" stop-color="#3b82f6" />
    </linearGradient>
    <filter id="shadow" x="-10%" y="-10%" width="120%" height="120%">
      <feDropShadow dx="0" dy="8" stdDeviation="12" flood-color="#6366f1" flood-opacity="0.3"/>
    </filter>
  </defs>
  <!-- Rounded App Icon Background -->
  <rect width="512" height="512" rx="128" fill="#090d16" />
  <rect x="24" y="24" width="464" height="464" rx="104" fill="none" stroke="url(#glowGrad)" stroke-width="4" opacity="0.3" />
  
  <!-- Glowing Center Icon -->
  <g transform="translate(128, 128)" filter="url(#shadow)">
    <!-- Graduation Cap / Book Hybrid Graphic -->
    <path d="M128 32 L24 88 L128 144 L216 98 L216 160 C216 160, 232 170, 232 180 C232 170, 248 160, 248 160 L248 98 Z" fill="url(#glowGrad)" />
    <path d="M56 120 L56 180 C56 200, 200 200, 200 180 L200 120 C180 135, 140 144, 128 144 C116 144, 76 135, 56 120 Z" fill="url(#glowGrad)" opacity="0.85" />
    <circle cx="232" cy="180" r="12" fill="#3b82f6" />
  </g>
</svg>
